<mxfile host="app.diagrams.net" modified="2020-12-03T15:26:29.493Z" agent="5.0 (Macintosh; Intel Mac OS X 10_15_5) AppleWebKit/537.36 (KHTML, like Gecko) Chrome/83.0.4103.97 Safari/537.36" etag="Jote-aDVEHgjl_CLc5qa" version="13.10.3" type="github">
  <diagram id="f4wvDMOhfTOpoyhmR9eb" name="Page-1">
    <mxGraphModel dx="924" dy="520" grid="1" gridSize="10" guides="1" tooltips="1" connect="1" arrows="1" fold="1" page="1" pageScale="1" pageWidth="827" pageHeight="1169" math="0" shadow="0">
      <root>
        <mxCell id="0" />
        <mxCell id="1" parent="0" />
        <mxCell id="yq7Zg9VJOZBEVH9Ad2cn-3" value="" style="edgeStyle=orthogonalEdgeStyle;rounded=0;orthogonalLoop=1;jettySize=auto;html=1;" edge="1" parent="1" source="yq7Zg9VJOZBEVH9Ad2cn-1" target="yq7Zg9VJOZBEVH9Ad2cn-2">
          <mxGeometry relative="1" as="geometry" />
        </mxCell>
        <mxCell id="yq7Zg9VJOZBEVH9Ad2cn-1" value="Menghubungkan Raspberry Pi dengan &lt;i&gt;power supply&lt;/i&gt;" style="rounded=1;whiteSpace=wrap;html=1;" vertex="1" parent="1">
          <mxGeometry x="319" y="90" width="190" height="60" as="geometry" />
        </mxCell>
        <mxCell id="yq7Zg9VJOZBEVH9Ad2cn-11" value="" style="edgeStyle=orthogonalEdgeStyle;rounded=0;orthogonalLoop=1;jettySize=auto;html=1;" edge="1" parent="1" source="yq7Zg9VJOZBEVH9Ad2cn-2" target="yq7Zg9VJOZBEVH9Ad2cn-10">
          <mxGeometry relative="1" as="geometry" />
        </mxCell>
        <mxCell id="yq7Zg9VJOZBEVH9Ad2cn-2" value="Pengguna membuka bot Telegram StudyComp" style="whiteSpace=wrap;html=1;rounded=1;" vertex="1" parent="1">
          <mxGeometry x="321" y="190" width="186" height="60" as="geometry" />
        </mxCell>
        <mxCell id="yq7Zg9VJOZBEVH9Ad2cn-13" value="" style="edgeStyle=orthogonalEdgeStyle;rounded=0;orthogonalLoop=1;jettySize=auto;html=1;" edge="1" parent="1" source="yq7Zg9VJOZBEVH9Ad2cn-10" target="yq7Zg9VJOZBEVH9Ad2cn-12">
          <mxGeometry relative="1" as="geometry" />
        </mxCell>
        <mxCell id="yq7Zg9VJOZBEVH9Ad2cn-16" value="" style="edgeStyle=orthogonalEdgeStyle;rounded=0;orthogonalLoop=1;jettySize=auto;html=1;" edge="1" parent="1" source="yq7Zg9VJOZBEVH9Ad2cn-10" target="yq7Zg9VJOZBEVH9Ad2cn-15">
          <mxGeometry relative="1" as="geometry" />
        </mxCell>
        <mxCell id="yq7Zg9VJOZBEVH9Ad2cn-22" style="edgeStyle=orthogonalEdgeStyle;rounded=0;orthogonalLoop=1;jettySize=auto;html=1;exitX=0;exitY=0.5;exitDx=0;exitDy=0;entryX=1;entryY=0.5;entryDx=0;entryDy=0;" edge="1" parent="1" source="yq7Zg9VJOZBEVH9Ad2cn-10" target="yq7Zg9VJOZBEVH9Ad2cn-21">
          <mxGeometry relative="1" as="geometry" />
        </mxCell>
        <mxCell id="yq7Zg9VJOZBEVH9Ad2cn-10" value="Pengguna dapat memasukkan input &quot;/start&quot;" style="rhombus;whiteSpace=wrap;html=1;rounded=1;" vertex="1" parent="1">
          <mxGeometry x="322" y="300" width="183" height="110" as="geometry" />
        </mxCell>
        <mxCell id="yq7Zg9VJOZBEVH9Ad2cn-12" value="Pilihan komando:&lt;br&gt;- /hi&lt;br&gt;- /help&lt;br&gt;- /songlist&lt;br&gt;- /start&lt;br&gt;- /about" style="whiteSpace=wrap;html=1;rounded=1;" vertex="1" parent="1">
          <mxGeometry x="570" y="290" width="177.5" height="130" as="geometry" />
        </mxCell>
        <mxCell id="yq7Zg9VJOZBEVH9Ad2cn-14" value="Tidak" style="text;html=1;align=center;verticalAlign=middle;resizable=0;points=[];autosize=1;" vertex="1" parent="1">
          <mxGeometry x="509" y="330" width="40" height="20" as="geometry" />
        </mxCell>
        <mxCell id="yq7Zg9VJOZBEVH9Ad2cn-15" value="Pilihan komando:&lt;br&gt;- /hi&lt;br&gt;- /help&lt;br&gt;- /songlist&lt;br&gt;- /start&lt;br&gt;- /about&lt;br&gt;-/pause&lt;br&gt;-/play&lt;br&gt;-/end&lt;br&gt;-/showvol&lt;br&gt;-/decvol&lt;br&gt;-/incvol" style="whiteSpace=wrap;html=1;rounded=1;" vertex="1" parent="1">
          <mxGeometry x="50" y="180" width="177.5" height="195" as="geometry" />
        </mxCell>
        <mxCell id="yq7Zg9VJOZBEVH9Ad2cn-19" value="Ya" style="text;html=1;align=center;verticalAlign=middle;resizable=0;points=[];autosize=1;" vertex="1" parent="1">
          <mxGeometry x="290" y="330" width="30" height="20" as="geometry" />
        </mxCell>
        <mxCell id="yq7Zg9VJOZBEVH9Ad2cn-21" value="Flowchart Program aktif" style="whiteSpace=wrap;html=1;rounded=1;" vertex="1" parent="1">
          <mxGeometry x="50" y="400" width="177.5" height="70" as="geometry" />
        </mxCell>
      </root>
    </mxGraphModel>
  </diagram>
</mxfile>
